<?xml version="1.0" encoding="UTF-8"?>
<!-- Generator: Adobe Illustrator 18.0.0, SVG Export Plug-In . SVG Version: 6.00 Build 0)  -->
<!DOCTYPE svg PUBLIC "-//W3C//DTD SVG 1.1//EN" "http://www.w3.org/Graphics/SVG/1.1/DTD/svg11.dtd">
<svg version="1.1" id="Layer_1" xmlns="http://www.w3.org/2000/svg" xmlns:xlink="http://www.w3.org/1999/xlink" x="0px" y="0px" viewBox="0 0 257.9 196.6" enable-background="new 0 0 257.9 196.6" xml:space="preserve">
<g>
	<g>
		<path fill="#B4378C" d="M160.7,8.7c3.3-3.1,9.7-3.2,14.3,0l71.4,45.7c4.6,3.1,4.3,9.5-0.8,14.2L127.1,180c-5,4.7-10.9,4.3-13.1-1    L81.5,98c-2.2-5.3-1.4-12.1,1.9-15.3L160.7,8.7z M115.5,150l4.4-4.1l-22.1-44.8l-3.6,3.4L115.5,150L115.5,150z M147.4,46.6    c-2.6-2.7-6.8-3-9.3-0.6c-2.5,2.4-2.5,6.7-0.1,9.6c2.5,2.9,6.6,3.2,9.3,0.6C150,53.6,150,49.3,147.4,46.6z M134.4,58.9    c-2.4-2.9-6.4-3.4-8.9-1c-2.5,2.4-2.7,6.8-0.5,9.9c2.2,3.1,6.2,3.5,8.9,1C136.6,66.3,136.8,61.9,134.4,58.9z M121.4,71.3    c-2.2-3.1-6-3.7-8.5-1.4c-2.5,2.4-2.9,7-0.9,10.3c2,3.3,5.8,3.9,8.5,1.4C123.2,79.1,123.6,74.5,121.4,71.3z M108.4,83.7    c-2-3.3-5.6-4.1-8.1-1.7c-2.5,2.4-3.1,7.2-1.3,10.6c1.8,3.5,5.4,4.2,8.1,1.7C109.8,91.8,110.4,87,108.4,83.7z M161,60.8    c-2.6-2.7-7-2.9-9.7-0.3c-2.7,2.6-2.9,7-0.5,9.9c2.5,2.9,6.8,3,9.7,0.3C163.4,67.9,163.6,63.5,161,60.8z M146.8,74.2    c-2.4-2.9-6.6-3.2-9.3-0.6c-2.7,2.6-3.1,7.2-0.9,10.3c2.2,3.1,6.4,3.4,9.3,0.6C148.9,81.7,149.3,77.1,146.8,74.2z M132.7,87.6    c-2.2-3.1-6.2-3.6-8.9-1c-2.7,2.6-3.3,7.4-1.3,10.6c2,3.3,6,3.7,8.9,1C134.3,95.5,134.9,90.7,132.7,87.6z M118.6,101    c-2-3.3-5.8-4-8.5-1.4c-2.7,2.6-3.5,7.5-1.7,11c1.8,3.5,5.6,4.1,8.5,1.4C119.8,109.2,120.6,104.3,118.6,101z M193.2,93.2l-9-9.4    l-10.9,10.3l8.5,9.8L193.2,93.2z M171.7,104.6c-2.4-2.9-6.9-2.9-10.1,0.1c-3.2,3-3.9,7.9-1.7,11c2.2,3.1,6.8,3,10.1-0.1    C173.3,112.5,174.1,107.5,171.7,104.6z M155.3,120c-2.2-3.1-6.5-3.3-9.7-0.3c-3.2,3-4.1,8.1-2.1,11.4c2,3.3,6.4,3.4,9.7,0.3    C156.6,128.2,157.5,123.2,155.3,120z M139,135.5c-2-3.3-6.1-3.6-9.3-0.6c-3.2,3-4.3,8.2-2.5,11.7c1.8,3.5,6,3.8,9.3,0.6    C139.8,144,140.9,138.8,139,135.5z M174.5,75c-2.6-2.7-7.1-2.7-10.1,0.1c-3,2.8-3.4,7.4-0.9,10.3c2.5,2.9,7,2.8,10.1-0.1    C176.7,82.3,177.1,77.7,174.5,75z M159.3,89.4c-2.4-2.9-6.7-3.1-9.7-0.3c-3,2.8-3.5,7.6-1.3,10.7c2.2,3.1,6.6,3.2,9.7,0.3    C161.1,97.1,161.7,92.3,159.3,89.4z M144,103.8c-2.2-3.1-6.3-3.4-9.3-0.6c-3,2.8-3.7,7.7-1.7,11c2,3.3,6.2,3.6,9.3,0.6    C145.5,111.9,146.2,106.9,144,103.8z M128.8,118.2c-2-3.3-6-3.8-8.9-1c-3,2.8-3.9,7.9-2.1,11.4c1.8,3.5,5.8,3.9,8.9,1    C129.8,126.6,130.7,121.5,128.8,118.2z M202.8,78.3c3.5,3.2,9.8,2.6,14.1-1.4c4.2-4,4.6-9.7,0.9-12.7l-50-40.2    c-3.8-3-7.1-0.9-10.2,2.1c-3.1,2.9-2.7,8,0.8,11.2L202.8,78.3L202.8,78.3z"/>
		<g>
			<path opacity="0.6" fill="#B4378C" d="M121.2,196.6c-1.3,0-2.5-0.1-3.8-0.4c-6.3-1.3-11.8-5.6-14.3-11.3     c-3.5-7.9-32.2-79-33.4-82c-0.9-2.3,0.2-4.8,2.4-5.7c2.3-0.9,4.8,0.2,5.7,2.4c0.3,0.7,29.9,74,33.3,81.8c1.3,3,4.4,5.5,7.9,6.1     c3.8,0.8,7.6-0.6,11-3.9c5.5-5.3,119.2-113.3,120.4-114.4c1.8-1.7,4.5-1.6,6.2,0.2c1.7,1.8,1.6,4.6-0.2,6.2     c-1.1,1.1-114.8,109-120.3,114.3C131.7,194.3,126.5,196.6,121.2,196.6L121.2,196.6z"/>
		</g>
	</g>
</g>
<path opacity="0.6" fill="#B4378C" d="M37.8,104.3v5.5c0,4.3-3.5,7.8-7.8,7.8c-4.3,0-7.8-3.5-7.8-7.8v-5.6c-9.5-1.5-16.8-5-17.2-5.1  c-4.3-2.1-6.2-7.3-4.1-11.6c2.1-4.3,7.3-6.2,11.6-4.1c0.1,0,8.9,4.2,18.5,4.2c5.9,0,12.7-2.4,12.7-9.3c0-4.8-2.1-6.6-13.7-11.7  c-1.6-0.7-3.3-1.4-4.9-2c-9.4-3.7-23.6-9.3-23.6-25.7c0-13,7.9-22.2,20.7-25.1V7.8c0-4.3,3.5-7.8,7.8-7.8c4.3,0,7.8,3.5,7.8,7.8v5.5  c8.5,1.7,13.4,6,14.2,6.7c2.3,1.9,4.6,7.6,0.5,12.2c-2.3,2.5-5.1,3.2-7.5,2.9c-3.6-0.5-5.3-2.6-6.4-3.2c-1-0.5-3.6-1.8-7.7-1.8  c-12.1,0-12.1,6.2-12.1,8.6c0,3.7,2.2,5.4,12.6,9.5c1.9,0.7,3.7,1.5,5.6,2.3c10.8,4.7,24.1,10.6,24.1,27.7  C61.1,91.5,51.6,101.7,37.8,104.3z"/>
</svg>